<svg width="15" height="15" viewBox="0 0 15 15" fill="none" xmlns="http://www.w3.org/2000/svg">
<path d="M14.4767 12.5775C13.9523 12.0862 13.5149 11.4859 12.9491 11.0546C11.8198 10.1876 11.6871 9.39163 12.2703 7.95542C13.8304 4.10034 10.8907 0.0140369 6.26249 0.0273763C4.35419 0.0851804 2.52423 1.1879 1.51024 3.42225C0.544123 5.55211 0.716021 7.68641 2.17608 9.55837C3.6122 11.4014 5.68369 12.5842 7.81611 11.6749C10.2575 10.6344 11.6001 11.5259 12.9361 13.2712C13.0558 13.4268 13.2233 13.5402 13.3473 13.6914C13.7173 14.1316 14.0632 14.1582 14.4854 13.7314C14.8923 13.3156 14.9075 12.9822 14.4767 12.5775ZM6.86957 10.3254C6.30365 10.331 5.74225 10.2219 5.2178 10.0046C4.69335 9.78723 4.21625 9.46586 3.81404 9.05905C3.41183 8.65224 3.0925 8.16803 2.87448 7.63441C2.65646 7.10079 2.54407 6.52832 2.54381 5.95007C2.53728 3.47561 4.40424 1.5992 6.85217 1.61921C7.96232 1.61932 9.02916 2.05937 9.82823 2.84679C10.6273 3.6342 11.0963 4.70759 11.1366 5.84113C11.2062 8.18219 9.20218 10.2876 6.86957 10.3254Z" fill="#25252D"/>
</svg>
